<svg width="431" height="94" viewBox="0 0 431 94" fill="none" xmlns="http://www.w3.org/2000/svg">
<path fill-rule="evenodd" clip-rule="evenodd" d="M277.5 93.1663C296.002 93.1663 311 78.1678 311 59.6663C311 41.1647 296.002 26.1663 277.5 26.1663C258.998 26.1663 244 41.1647 244 59.6663C244 78.1678 258.998 93.1663 277.5 93.1663ZM277.5 84.1663C291.031 84.1663 302 73.1973 302 59.6663C302 46.1353 291.031 35.1663 277.5 35.1663C263.969 35.1663 253 46.1353 253 59.6663C253 73.1973 263.969 84.1663 277.5 84.1663Z" fill="black"/>
<circle cx="277.5" cy="59.6663" r="24.5" fill="#FFCB30"/>
<path fill-rule="evenodd" clip-rule="evenodd" d="M258.816 75.5154C257.643 72.4576 257 69.137 257 65.6663C257 50.4785 269.312 38.1663 284.5 38.1663C286.496 38.1663 288.443 38.379 290.318 38.7829C286.589 36.4892 282.199 35.1663 277.5 35.1663C263.969 35.1663 253 46.1353 253 59.6663C253 65.7102 255.188 71.243 258.816 75.5154Z" fill="#FFA109"/>
<path fill-rule="evenodd" clip-rule="evenodd" d="M198.5 93.1663C217.002 93.1663 232 78.1678 232 59.6663C232 41.1647 217.002 26.1663 198.5 26.1663C179.998 26.1663 165 41.1647 165 59.6663C165 78.1678 179.998 93.1663 198.5 93.1663ZM198.5 84.1663C212.031 84.1663 223 73.1973 223 59.6663C223 46.1353 212.031 35.1663 198.5 35.1663C184.969 35.1663 174 46.1353 174 59.6663C174 73.1973 184.969 84.1663 198.5 84.1663Z" fill="black"/>
<circle cx="198.5" cy="59.6663" r="24.5" fill="#FFCB30"/>
<path fill-rule="evenodd" clip-rule="evenodd" d="M179.816 75.5154C178.643 72.4576 178 69.137 178 65.6663C178 50.4785 190.312 38.1663 205.5 38.1663C207.496 38.1663 209.443 38.379 211.318 38.7829C207.589 36.4892 203.199 35.1663 198.5 35.1663C184.969 35.1663 174 46.1353 174 59.6663C174 65.7102 176.188 71.243 179.816 75.5154Z" fill="#FFA109"/>
<path d="M230 54.6662V54.6662C235.253 53.3531 240.747 53.3531 246 54.6662V54.6662" stroke="black" stroke-width="5"/>
<rect x="198" y="26.1663" width="80" height="5" fill="black"/>
<path d="M310.473 13.8374C280.25 -6.09605 258.889 -1.64383 244.895 10.756C241.501 13.7626 243.561 18.9813 248.049 19.6225C250.437 19.9636 252.742 18.7728 254.278 16.9134C264.491 4.55294 286.378 3.23227 309.644 15.2394C310.091 15.4698 310.645 15.2529 310.804 14.7761C310.92 14.4282 310.779 14.0393 310.473 13.8374Z" fill="black"/>
<path d="M165.527 13.8168C195.75 -6.11662 217.111 -1.6644 231.105 10.7354C234.499 13.742 232.439 18.9608 227.951 19.6019C225.563 19.943 223.258 18.7522 221.722 16.8929C211.509 4.53237 189.622 3.2117 166.356 15.2188C165.909 15.4493 165.355 15.2323 165.196 14.7556C165.08 14.4077 165.221 14.0187 165.527 13.8168Z" fill="black"/>
<path d="M352.053 93.2384C347.981 93.2384 344.035 92.4745 340.472 90.9466C336.908 89.2914 333.727 87.2543 331.054 84.4532C328.254 81.7794 326.218 78.5964 324.563 75.0314C323.036 71.4664 322.272 67.5194 322.272 63.4451V43.7103H314V26.7765H322.272V0.16629H339.199V26.7765H381.961V43.7103H339.199V63.4451C339.199 65.2276 339.581 66.8828 340.217 68.4107C340.854 70.0659 341.744 71.3391 342.89 72.485C344.035 73.7582 345.435 74.6494 346.962 75.286C348.617 76.05 350.271 76.3046 352.053 76.3046H362.907V93.2384H352.053Z" fill="black"/>
<path d="M387.811 93.2384H370.884V0.16629H387.811V29.5776C389.847 28.0497 391.883 26.9038 394.047 26.2672C396.211 25.6306 398.501 25.376 400.665 25.376C404.738 25.376 408.683 26.1399 412.246 27.6678C415.81 29.1956 418.992 31.3601 421.664 34.0338C424.337 36.8349 426.5 40.018 428.028 43.583C429.555 47.2753 430.318 51.0949 430.318 55.1692V93.2384H413.264V55.1692H413.392C413.392 53.3867 413.01 51.8589 412.374 50.2037C411.737 48.6758 410.846 47.2753 409.574 46.1294C408.428 44.9835 407.156 44.0922 405.628 43.4556C404.101 42.819 402.447 42.4371 400.665 42.4371C398.883 42.4371 397.229 42.819 395.701 43.4556C394.047 44.0922 392.647 44.9835 391.502 46.1294C390.356 47.2753 389.465 48.6758 388.829 50.2037C388.193 51.8589 387.811 53.3867 387.811 55.1692V93.2384Z" fill="black"/>
<path d="M161.638 92.9301H144.673V50.6554C144.673 49.4946 144.455 48.397 144.021 47.3608C143.586 46.3246 142.985 45.4121 142.218 44.6252C141.835 44.2309 141.421 43.8818 140.976 43.5762C140.52 43.2706 140.033 43.0086 139.515 42.791C138.489 42.3599 137.401 42.1422 136.253 42.1388C135.104 42.1422 134.017 42.3599 132.99 42.791C132.472 43.0086 131.985 43.2706 131.53 43.5762C131.084 43.8818 130.671 44.2309 130.287 44.6252C129.52 45.4121 128.92 46.3246 128.485 47.3608C128.05 48.397 127.832 49.4946 127.832 50.6554V92.9301H110.805V50.6554C110.805 49.4946 110.588 48.397 110.153 47.3608C109.718 46.3246 109.117 45.4121 108.351 44.6252C107.968 44.2309 107.553 43.8818 107.108 43.5762C106.652 43.2706 106.166 43.0086 105.648 42.791C104.621 42.3599 103.534 42.1422 102.385 42.1388C101.237 42.1422 100.149 42.3599 99.1228 42.791C98.6049 43.0086 98.1177 43.2706 97.6622 43.5762C97.2168 43.8818 96.803 44.2309 96.4191 44.6252C95.653 45.4121 95.0523 46.3246 94.6172 47.3608C94.1821 48.397 93.9645 49.4946 93.9645 50.6554V92.9301H77V50.6554C77 47.132 77.663 43.8169 78.9888 40.7083C80.3138 37.5998 82.1267 34.8958 84.4261 32.5955C86.7254 30.2952 89.418 28.4815 92.5047 27.1559C95.1308 26.0267 97.9138 25.3788 100.856 25.2107C101.352 25.1808 101.851 25.1663 102.354 25.1663H102.385H102.416C103.949 25.1663 105.503 25.3012 107.077 25.57C108.651 25.8397 110.174 26.2853 111.644 26.9066C113.115 27.5289 114.513 28.3363 115.839 29.3315C117.138 30.3063 118.299 31.4808 119.319 32.8533C120.34 31.4808 121.5 30.3063 122.799 29.3315C124.125 28.3363 125.523 27.5289 126.993 26.9066C128.464 26.2853 129.987 25.8397 131.561 25.57C133.135 25.3012 134.689 25.1663 136.221 25.1663H136.253H136.284C136.786 25.1663 137.286 25.1808 137.783 25.2107C140.724 25.3788 143.507 26.0267 146.133 27.1559C149.22 28.4815 151.913 30.2952 154.212 32.5955C156.511 34.8958 158.324 37.5998 159.649 40.7083C160.975 43.8169 161.638 47.1329 161.638 50.6554V92.9301Z" fill="black"/>
<path d="M0 30.9038C0 27.2115 0.636339 23.7738 2.16355 20.4635C3.5635 17.2804 5.47252 14.4793 7.8906 12.0602C10.3087 9.64112 13.1086 7.60397 16.2903 6.20343C19.5992 4.80289 23.0355 4.16629 26.7262 4.16629H67.5792V21.9913H26.7262C25.4536 21.9913 24.3082 22.246 23.29 22.6279C22.1446 23.1372 21.2537 23.7738 20.3628 24.5377C19.5992 25.429 18.9629 26.3203 18.4538 27.3388C18.072 28.4847 17.8175 29.6306 17.8175 30.9038C17.8175 32.177 18.072 33.3229 18.4538 34.3415C18.9629 35.4874 19.5992 36.3787 20.3628 37.2699C21.2537 38.0338 22.1446 38.6705 23.29 39.1797C24.3082 39.5617 25.4536 39.8163 26.7262 39.8163H44.5437C48.2345 39.8163 51.6707 40.5803 54.9797 41.8535C58.1614 43.254 61.0886 45.1639 63.5066 47.583C65.9247 50.0021 67.8337 52.9305 69.2337 56.1135C70.6336 59.4239 71.27 62.8616 71.27 66.5539C71.27 70.2462 70.6336 73.6839 69.2337 76.9943C67.8337 80.1773 65.9247 82.9784 63.5066 85.3975C61.0886 87.8166 58.1614 89.7264 54.9797 91.127C51.6707 92.5275 48.2345 93.2914 44.5437 93.2914H4.96344V75.4664H44.5437C45.8164 75.4664 46.9618 75.2118 47.98 74.7025C49.1254 74.3205 50.0163 73.6839 50.9071 72.92C51.6707 72.0287 52.3071 71.1375 52.6889 69.9916C53.1979 68.973 53.4525 67.8271 53.4525 66.5539C53.4525 65.2807 53.1979 64.1348 52.6889 63.1162C52.3071 61.9703 51.6707 61.0791 50.9071 60.1878C50.0163 59.4239 49.1254 58.7873 47.98 58.4053C46.9618 57.896 45.8164 57.6414 44.5437 57.6414H26.7262C23.0355 57.6414 19.5992 57.0048 16.2903 55.6042C13.1086 54.2037 10.3087 52.1665 7.8906 49.7474C5.47252 47.3283 3.5635 44.5272 2.16355 41.3442C0.636339 38.0338 0 34.5962 0 30.9038Z" fill="black"/>
</svg>
